<svg xmlns="http://www.w3.org/2000/svg" viewBox="0 0 520 420" role="img" aria-labelledby="heroTitle">
  <title id="heroTitle">Abstract illustration of a global data network connecting Abuja to the world</title>
  <defs>
    <radialGradient id="glow" cx="50%" cy="42%" r="60%">
      <stop offset="0%" stop-color="#2f3f66"/>
      <stop offset="100%" stop-color="#16233f" stop-opacity="0"/>
    </radialGradient>
  </defs>
  <rect width="520" height="420" fill="none"/>
  <circle cx="260" cy="180" r="150" fill="url(#glow)"/>
  <circle cx="260" cy="180" r="130" fill="none" stroke="#3c507f" stroke-width="1"/>
  <circle cx="260" cy="180" r="95" fill="none" stroke="#3c507f" stroke-width="1"/>
  <ellipse cx="260" cy="180" rx="130" ry="46" fill="none" stroke="#3c507f" stroke-width="1"/>
  <ellipse cx="260" cy="180" rx="130" ry="90" fill="none" stroke="#3c507f" stroke-width="1"/>
  <g stroke="#e7b45a" stroke-width="1.6" opacity="0.85">
    <line x1="260" y1="180" x2="120" y2="90"/>
    <line x1="260" y1="180" x2="400" y2="70"/>
    <line x1="260" y1="180" x2="410" y2="240"/>
    <line x1="260" y1="180" x2="140" y2="290"/>
    <line x1="260" y1="180" x2="300" y2="320"/>
  </g>
  <g fill="#e7b45a">
    <circle cx="260" cy="180" r="8"/>
    <circle cx="120" cy="90" r="5"/>
    <circle cx="400" cy="70" r="5"/>
    <circle cx="410" cy="240" r="5"/>
    <circle cx="140" cy="290" r="5"/>
    <circle cx="300" cy="320" r="5"/>
  </g>
  <text x="260" y="186" text-anchor="middle" font-family="Georgia, serif" font-size="13" fill="#16233f" font-weight="700">ABJ</text>
</svg>
